<svg id="Camada_1" data-name="Camada 1" xmlns="http://www.w3.org/2000/svg" xmlns:xlink="http://www.w3.org/1999/xlink" viewBox="0 0 1156.17 1156.17"><defs><style>.cls-1{fill:#fff;}.cls-2{fill:url(#Gradiente_sem_nome_9);}.cls-3{clip-path:url(#clip-path);}</style><linearGradient id="Gradiente_sem_nome_9" x1="51.09" y1="578.09" x2="1105.09" y2="578.09" gradientUnits="userSpaceOnUse"><stop offset="0" stop-color="#ed1e79"/><stop offset="1" stop-color="#f15a24"/></linearGradient><clipPath id="clip-path"><path class="cls-1" d="M994.27,546.9A43.5,43.5,0,0,0,940,541.05h0L807.71,408.74a43.49,43.49,0,1,0-73.54-.54L601.52,540.85a43.55,43.55,0,0,0-47,.4l-132-132.45a43.49,43.49,0,1,0-73.51-.6L215.62,541.58a43.49,43.49,0,1,0,1.18,73.14L348.54,747.31h0a43.48,43.48,0,1,0,73.38.55h0L554.74,614.18a43.54,43.54,0,0,0,46.57.4l132.36,132.8h0a43.48,43.48,0,1,0,73.41.49h0L939.91,614.18h0a43.49,43.49,0,0,0,54.35-67.28ZM408.89,734.54h0a43.52,43.52,0,0,0-47.09-.34h0L229.72,601.29a43.56,43.56,0,0,0-.73-46.7h0l133-133h0a43.57,43.57,0,0,0,47.28.38L541.48,554.57a43.52,43.52,0,0,0,.14,46.38Zm385.17,0h0a43.53,43.53,0,0,0-47.15-.3h0L614.68,601.6v0a43.55,43.55,0,0,0,.12-47.65L747.16,421.57h0a43.57,43.57,0,0,0,47.34.34L926.86,554.25a43.54,43.54,0,0,0-.06,46.69h0Z"/></clipPath></defs><title>Safely_App_2</title><rect class="cls-2" x="51.09" y="51.09" width="1054" height="1054" rx="121.95"/><path class="cls-1" d="M994.27,546.9A43.5,43.5,0,0,0,940,541.05h0L807.71,408.74a43.49,43.49,0,1,0-73.54-.54L601.52,540.85a43.55,43.55,0,0,0-47,.4l-132-132.45a43.49,43.49,0,1,0-73.51-.6L215.62,541.58a43.49,43.49,0,1,0,1.18,73.14L348.54,747.31h0a43.48,43.48,0,1,0,73.38.55h0L554.74,614.18a43.54,43.54,0,0,0,46.57.4l132.36,132.8h0a43.48,43.48,0,1,0,73.41.49h0L939.91,614.18h0a43.49,43.49,0,0,0,54.35-67.28ZM408.89,734.54h0a43.52,43.52,0,0,0-47.09-.34h0L229.72,601.29a43.56,43.56,0,0,0-.73-46.7h0l133-133h0a43.57,43.57,0,0,0,47.28.38L541.48,554.57a43.52,43.52,0,0,0,.14,46.38Zm385.17,0h0a43.53,43.53,0,0,0-47.15-.3h0L614.68,601.6v0a43.55,43.55,0,0,0,.12-47.65L747.16,421.57h0a43.57,43.57,0,0,0,47.34.34L926.86,554.25a43.54,43.54,0,0,0-.06,46.69h0Z"/><g class="cls-3"><rect class="cls-1" x="614.68" y="421.57" width="8.82" height="312.97"/><rect class="cls-1" x="623.5" y="421.57" width="10.09" height="312.97"/><rect class="cls-1" x="633.59" y="421.57" width="10.09" height="312.97"/><rect class="cls-1" x="643.69" y="421.57" width="10.09" height="312.97"/><rect class="cls-1" x="653.78" y="421.57" width="10.09" height="312.97"/><rect class="cls-1" x="663.87" y="421.57" width="10.09" height="312.97"/><rect class="cls-1" x="673.96" y="421.57" width="10.09" height="312.97"/><rect class="cls-1" x="684.05" y="421.57" width="10.09" height="312.97"/><rect class="cls-1" x="694.15" y="421.57" width="10.09" height="312.97"/><rect class="cls-1" x="704.24" y="421.57" width="10.09" height="312.97"/><rect class="cls-1" x="714.33" y="421.57" width="10.09" height="312.97"/><rect class="cls-1" x="724.42" y="421.57" width="10.09" height="312.97"/><rect class="cls-1" x="734.52" y="421.57" width="10.09" height="312.97"/><rect class="cls-1" x="744.61" y="421.57" width="10.09" height="312.97"/><rect class="cls-1" x="754.7" y="421.57" width="10.09" height="312.97"/><rect class="cls-1" x="764.79" y="421.57" width="10.09" height="312.97"/><rect class="cls-1" x="774.88" y="421.57" width="10.09" height="312.97"/><rect class="cls-1" x="784.98" y="421.57" width="10.09" height="312.97"/><rect class="cls-1" x="795.07" y="421.57" width="10.09" height="312.97"/><rect class="cls-1" x="805.16" y="421.57" width="10.09" height="312.97"/><rect class="cls-1" x="815.25" y="421.57" width="10.09" height="312.97"/><rect class="cls-1" x="825.34" y="421.57" width="10.09" height="312.97"/><rect class="cls-1" x="835.44" y="421.57" width="10.09" height="312.97"/><rect class="cls-1" x="845.53" y="421.57" width="10.09" height="312.97"/><rect class="cls-1" x="855.62" y="421.57" width="10.09" height="312.97"/><rect class="cls-1" x="865.71" y="421.57" width="10.09" height="312.97"/><rect class="cls-1" x="875.81" y="421.57" width="10.09" height="312.97"/><rect class="cls-1" x="885.9" y="421.57" width="10.09" height="312.97"/><rect class="cls-1" x="895.99" y="421.57" width="10.09" height="312.97"/><rect class="cls-1" x="906.08" y="421.57" width="10.09" height="312.97"/><rect class="cls-1" x="916.17" y="421.57" width="10.09" height="312.97"/><rect class="cls-1" x="926.27" y="421.57" width="0.59" height="312.97"/><rect class="cls-1" x="228.99" y="421.57" width="0.92" height="312.97"/><rect class="cls-1" x="229.91" y="421.57" width="10.09" height="312.97"/><rect class="cls-1" x="240" y="421.57" width="10.09" height="312.97"/><rect class="cls-1" x="250.09" y="421.57" width="10.09" height="312.97"/><rect class="cls-1" x="260.18" y="421.57" width="10.09" height="312.97"/><rect class="cls-1" x="270.28" y="421.57" width="10.09" height="312.97"/><rect class="cls-1" x="280.37" y="421.57" width="10.09" height="312.97"/><rect class="cls-1" x="290.46" y="421.57" width="10.09" height="312.97"/><rect class="cls-1" x="300.55" y="421.57" width="10.09" height="312.97"/><rect class="cls-1" x="310.64" y="421.57" width="10.09" height="312.97"/><rect class="cls-1" x="320.74" y="421.57" width="10.09" height="312.97"/><rect class="cls-1" x="330.83" y="421.57" width="10.09" height="312.97"/><rect class="cls-1" x="340.92" y="421.57" width="10.09" height="312.97"/><rect class="cls-1" x="351.01" y="421.57" width="10.09" height="312.97"/><rect class="cls-1" x="361.1" y="421.57" width="10.09" height="312.97"/><rect class="cls-1" x="371.2" y="421.57" width="10.09" height="312.97"/><rect class="cls-1" x="381.29" y="421.57" width="10.09" height="312.97"/><rect class="cls-1" x="391.38" y="421.57" width="10.09" height="312.97"/><rect class="cls-1" x="401.47" y="421.57" width="10.09" height="312.97"/><rect class="cls-1" x="411.57" y="421.57" width="10.09" height="312.97"/><rect class="cls-1" x="421.66" y="421.57" width="10.09" height="312.97"/><rect class="cls-1" x="431.75" y="421.57" width="10.09" height="312.97"/><rect class="cls-1" x="441.84" y="421.57" width="10.09" height="312.97"/><rect class="cls-1" x="451.93" y="421.57" width="10.09" height="312.97"/><rect class="cls-1" x="462.03" y="421.57" width="10.09" height="312.97"/><rect class="cls-1" x="472.12" y="421.57" width="10.09" height="312.97"/><rect class="cls-1" x="482.21" y="421.57" width="10.09" height="312.97"/><rect class="cls-1" x="492.3" y="421.57" width="10.09" height="312.97"/><rect class="cls-1" x="502.4" y="421.57" width="10.09" height="312.97"/><rect class="cls-1" x="512.49" y="421.57" width="10.09" height="312.97"/><rect class="cls-1" x="522.58" y="421.57" width="10.09" height="312.97"/><rect class="cls-1" x="532.67" y="421.57" width="8.95" height="312.97"/><rect class="cls-1" x="144.92" y="337.51" width="4.25" height="481.16"/><rect class="cls-1" x="149.17" y="337.51" width="10.09" height="481.16"/><rect class="cls-1" x="159.26" y="337.51" width="10.09" height="481.16"/><rect class="cls-1" x="169.35" y="337.51" width="10.09" height="481.16"/><rect class="cls-1" x="179.45" y="337.51" width="10.09" height="481.16"/><rect class="cls-1" x="189.54" y="337.51" width="10.09" height="481.16"/><rect class="cls-1" x="199.63" y="337.51" width="10.09" height="481.16"/><rect class="cls-1" x="209.72" y="337.51" width="10.09" height="481.16"/><rect class="cls-1" x="219.81" y="337.51" width="10.09" height="481.16"/><rect class="cls-1" x="229.91" y="337.51" width="10.09" height="481.16"/><rect class="cls-1" x="240" y="337.51" width="10.09" height="481.16"/><rect class="cls-1" x="250.09" y="337.51" width="10.09" height="481.16"/><rect class="cls-1" x="260.18" y="337.51" width="10.09" height="481.16"/><rect class="cls-1" x="270.28" y="337.51" width="10.09" height="481.16"/><rect class="cls-1" x="280.37" y="337.51" width="10.09" height="481.16"/><rect class="cls-1" x="290.46" y="337.51" width="10.09" height="481.16"/><rect class="cls-1" x="300.55" y="337.51" width="10.09" height="481.16"/><rect class="cls-1" x="310.64" y="337.51" width="10.09" height="481.16"/><rect class="cls-1" x="320.74" y="337.51" width="10.09" height="481.16"/><rect class="cls-1" x="330.83" y="337.51" width="10.09" height="481.16"/><rect class="cls-1" x="340.92" y="337.51" width="10.09" height="481.16"/><rect class="cls-1" x="351.01" y="337.51" width="10.09" height="481.16"/><rect class="cls-1" x="361.1" y="337.51" width="10.09" height="481.16"/><rect class="cls-1" x="371.2" y="337.51" width="10.09" height="481.16"/><rect class="cls-1" x="381.29" y="337.51" width="10.09" height="481.16"/><rect class="cls-1" x="391.38" y="337.51" width="10.09" height="481.16"/><rect class="cls-1" x="401.47" y="337.51" width="10.09" height="481.16"/><rect class="cls-1" x="411.57" y="337.51" width="10.09" height="481.16"/><rect class="cls-1" x="421.66" y="337.51" width="10.09" height="481.16"/><rect class="cls-1" x="431.75" y="337.51" width="10.09" height="481.16"/><rect class="cls-1" x="441.84" y="337.51" width="10.09" height="481.16"/><rect class="cls-1" x="451.93" y="337.51" width="10.09" height="481.16"/><rect class="cls-1" x="462.03" y="337.51" width="10.09" height="481.16"/><rect class="cls-1" x="472.12" y="337.51" width="10.09" height="481.16"/><rect class="cls-1" x="482.21" y="337.51" width="10.09" height="481.16"/><rect class="cls-1" x="492.3" y="337.51" width="10.09" height="481.16"/><rect class="cls-1" x="502.4" y="337.51" width="10.09" height="481.16"/><rect class="cls-1" x="512.49" y="337.51" width="10.09" height="481.16"/><rect class="cls-1" x="522.58" y="337.51" width="10.09" height="481.16"/><rect class="cls-1" x="532.67" y="337.51" width="10.09" height="481.16"/><rect class="cls-1" x="542.76" y="337.51" width="10.09" height="481.16"/><rect class="cls-1" x="552.86" y="337.51" width="10.09" height="481.16"/><rect class="cls-1" x="562.95" y="337.51" width="10.09" height="481.16"/><rect class="cls-1" x="573.04" y="337.51" width="10.09" height="481.16"/><rect class="cls-1" x="583.13" y="337.51" width="10.09" height="481.16"/><rect class="cls-1" x="593.22" y="337.51" width="10.09" height="481.16"/><rect class="cls-1" x="603.32" y="337.51" width="10.09" height="481.16"/><rect class="cls-1" x="613.41" y="337.51" width="10.09" height="481.16"/><rect class="cls-1" x="623.5" y="337.51" width="10.09" height="481.16"/><rect class="cls-1" x="633.59" y="337.51" width="10.09" height="481.16"/><rect class="cls-1" x="643.69" y="337.51" width="10.09" height="481.16"/><rect class="cls-1" x="653.78" y="337.51" width="10.09" height="481.16"/><rect class="cls-1" x="663.87" y="337.51" width="10.09" height="481.16"/><rect class="cls-1" x="673.96" y="337.51" width="10.09" height="481.16"/><rect class="cls-1" x="684.05" y="337.51" width="10.09" height="481.16"/><rect class="cls-1" x="694.15" y="337.51" width="10.09" height="481.16"/><rect class="cls-1" x="704.24" y="337.51" width="10.09" height="481.16"/><rect class="cls-1" x="714.33" y="337.51" width="10.09" height="481.16"/><rect class="cls-1" x="724.42" y="337.51" width="10.09" height="481.16"/><rect class="cls-1" x="734.52" y="337.51" width="10.09" height="481.16"/><rect class="cls-1" x="744.61" y="337.51" width="10.09" height="481.16"/><rect class="cls-1" x="754.7" y="337.51" width="10.09" height="481.16"/><rect class="cls-1" x="764.79" y="337.51" width="10.09" height="481.16"/><rect class="cls-1" x="774.88" y="337.51" width="10.09" height="481.16"/><rect class="cls-1" x="784.98" y="337.51" width="10.09" height="481.16"/><rect class="cls-1" x="795.07" y="337.51" width="10.09" height="481.16"/><rect class="cls-1" x="805.16" y="337.51" width="10.09" height="481.16"/><rect class="cls-1" x="815.25" y="337.51" width="10.09" height="481.16"/><rect class="cls-1" x="825.34" y="337.51" width="10.09" height="481.16"/><rect class="cls-1" x="835.44" y="337.51" width="10.09" height="481.16"/><rect class="cls-1" x="845.53" y="337.51" width="10.09" height="481.16"/><rect class="cls-1" x="855.62" y="337.51" width="10.09" height="481.16"/><rect class="cls-1" x="865.71" y="337.51" width="10.09" height="481.16"/><rect class="cls-1" x="875.81" y="337.51" width="10.09" height="481.16"/><rect class="cls-1" x="885.9" y="337.51" width="10.09" height="481.16"/><rect class="cls-1" x="895.99" y="337.51" width="10.09" height="481.16"/><rect class="cls-1" x="906.08" y="337.51" width="10.09" height="481.16"/><rect class="cls-1" x="916.17" y="337.51" width="10.09" height="481.16"/><rect class="cls-1" x="926.27" y="337.51" width="10.09" height="481.16"/><rect class="cls-1" x="936.36" y="337.51" width="10.09" height="481.16"/><rect class="cls-1" x="946.45" y="337.51" width="10.09" height="481.16"/><rect class="cls-1" x="956.54" y="337.51" width="10.09" height="481.16"/><rect class="cls-1" x="966.64" y="337.51" width="10.09" height="481.16"/><rect class="cls-1" x="976.73" y="337.51" width="10.09" height="481.16"/><rect class="cls-1" x="986.82" y="337.51" width="10.09" height="481.16"/><rect class="cls-1" x="996.91" y="337.51" width="10.09" height="481.16"/><rect class="cls-1" x="1007" y="337.51" width="4.25" height="481.16"/></g></svg>