<svg id="Camada_1" data-name="Camada 1" xmlns="http://www.w3.org/2000/svg" xmlns:xlink="http://www.w3.org/1999/xlink" viewBox="0 0 1156.17 1156.17"><defs><style>.cls-1{fill:none;}.cls-2{fill:#f1f1f1;}.cls-3{clip-path:url(#clip-path);}.cls-4{fill:#ef3f4a;}.cls-5{fill:#ef4049;}.cls-6{fill:#ef4048;}.cls-7{fill:#ef4147;}.cls-8{fill:#ef4246;}.cls-9{fill:#ef4245;}.cls-10{fill:#ef4344;}.cls-11{fill:#f04443;}.cls-12{fill:#f04542;}.cls-13{fill:#f04541;}.cls-14{fill:#f04640;}.cls-15{fill:#f0473f;}.cls-16{fill:#f0473e;}.cls-17{fill:#f0483d;}.cls-18{fill:#f0493c;}.cls-19{fill:#f04a3b;}.cls-20{fill:#f04a3a;}.cls-21{fill:#f04b39;}.cls-22{fill:#f04c38;}.cls-23{fill:#f04c37;}.cls-24{fill:#f04d36;}.cls-25{fill:#f04e35;}.cls-26{fill:#f04f34;}.cls-27{fill:#f04f33;}.cls-28{fill:#f05032;}.cls-29{fill:#f05131;}.cls-30{fill:#f05130;}.cls-31{fill:#f0522f;}.cls-32{fill:#f1532e;}.cls-33{fill:#f1542d;}.cls-34{fill:#f1542c;}.cls-35{fill:#f1552b;}.cls-36{fill:#ed2372;}.cls-37{fill:#ed2471;}.cls-38{fill:#ed2470;}.cls-39{fill:#ed256f;}.cls-40{fill:#ee266e;}.cls-41{fill:#ee276d;}.cls-42{fill:#ee276c;}.cls-43{fill:#ee286b;}.cls-44{fill:#ee296a;}.cls-45{fill:#ee2969;}.cls-46{fill:#ee2a68;}.cls-47{fill:#ee2b67;}.cls-48{fill:#ee2c66;}.cls-49{fill:#ee2c65;}.cls-50{fill:#ee2d64;}.cls-51{fill:#ee2e63;}.cls-52{fill:#ee2e62;}.cls-53{fill:#ee2f61;}.cls-54{fill:#ee3060;}.cls-55{fill:#ee315f;}.cls-56{fill:#ee315e;}.cls-57{fill:#ee325d;}.cls-58{fill:#ee335c;}.cls-59{fill:#ee335b;}.cls-60{fill:#ee345a;}.cls-61{fill:#ef3559;}.cls-62{fill:#ef3658;}.cls-63{fill:#ef3657;}.cls-64{fill:#ef3756;}.cls-65{fill:#ef3855;}.cls-66{fill:#ef3854;}.cls-67{fill:#ef3953;}.cls-68{fill:#ed1e79;}.cls-69{fill:#ed1f78;}.cls-70{fill:#ed1f77;}.cls-71{fill:#ed2076;}.cls-72{fill:#ed2175;}.cls-73{fill:#ed2274;}.cls-74{fill:#ed2273;}.cls-75{fill:#ef3a52;}.cls-76{fill:#ef3b51;}.cls-77{fill:#ef3b50;}.cls-78{fill:#ef3c4f;}.cls-79{fill:#ef3d4d;}.cls-80{fill:#ef3d4c;}.cls-81{fill:#ef3e4b;}.cls-82{fill:#f1562a;}.cls-83{fill:#f15629;}.cls-84{fill:#f15728;}.cls-85{fill:#f15827;}.cls-86{fill:#f15926;}.cls-87{fill:#f15925;}.cls-88{fill:#f15a24;}</style><clipPath id="clip-path"><path class="cls-1" d="M994.27,546.9A43.5,43.5,0,0,0,940,541.05h0L807.71,408.74a43.49,43.49,0,1,0-73.54-.54L601.52,540.85a43.55,43.55,0,0,0-47,.4l-132-132.45a43.49,43.49,0,1,0-73.51-.6L215.62,541.58a43.49,43.49,0,1,0,1.18,73.14L348.54,747.31h0a43.48,43.48,0,1,0,73.38.55h0L554.74,614.18a43.54,43.54,0,0,0,46.57.4l132.36,132.8h0a43.48,43.48,0,1,0,73.41.49h0L939.91,614.18h0a43.49,43.49,0,0,0,54.35-67.28ZM408.89,734.54h0a43.52,43.52,0,0,0-47.09-.34h0L229.72,601.29a43.56,43.56,0,0,0-.73-46.7h0l133-133h0a43.57,43.57,0,0,0,47.28.38L541.48,554.57a43.52,43.52,0,0,0,.14,46.38Zm385.17,0h0a43.53,43.53,0,0,0-47.15-.3h0L614.68,601.6v0a43.55,43.55,0,0,0,.12-47.65L747.16,421.57h0a43.57,43.57,0,0,0,47.34.34L926.86,554.25a43.54,43.54,0,0,0-.06,46.69h0Z"/></clipPath></defs><title>Safely_App_3</title><rect class="cls-2" x="51.09" y="51.09" width="1054" height="1054" rx="121.95"/><g class="cls-3"><rect class="cls-4" x="614.68" y="421.57" width="8.82" height="312.97"/><rect class="cls-5" x="623.5" y="421.57" width="10.09" height="312.97"/><rect class="cls-6" x="633.59" y="421.57" width="10.09" height="312.97"/><rect class="cls-7" x="643.69" y="421.57" width="10.09" height="312.97"/><rect class="cls-8" x="653.78" y="421.57" width="10.09" height="312.97"/><rect class="cls-9" x="663.87" y="421.57" width="10.09" height="312.97"/><rect class="cls-10" x="673.96" y="421.57" width="10.09" height="312.97"/><rect class="cls-11" x="684.05" y="421.57" width="10.09" height="312.97"/><rect class="cls-12" x="694.15" y="421.57" width="10.09" height="312.97"/><rect class="cls-13" x="704.24" y="421.57" width="10.09" height="312.97"/><rect class="cls-14" x="714.33" y="421.57" width="10.09" height="312.97"/><rect class="cls-15" x="724.42" y="421.57" width="10.09" height="312.97"/><rect class="cls-16" x="734.52" y="421.57" width="10.09" height="312.97"/><rect class="cls-17" x="744.61" y="421.57" width="10.09" height="312.97"/><rect class="cls-18" x="754.7" y="421.57" width="10.09" height="312.97"/><rect class="cls-19" x="764.79" y="421.57" width="10.09" height="312.97"/><rect class="cls-20" x="774.88" y="421.57" width="10.09" height="312.97"/><rect class="cls-21" x="784.98" y="421.57" width="10.09" height="312.97"/><rect class="cls-22" x="795.07" y="421.57" width="10.09" height="312.97"/><rect class="cls-23" x="805.16" y="421.57" width="10.09" height="312.97"/><rect class="cls-24" x="815.25" y="421.57" width="10.09" height="312.97"/><rect class="cls-25" x="825.34" y="421.57" width="10.09" height="312.97"/><rect class="cls-26" x="835.44" y="421.57" width="10.09" height="312.97"/><rect class="cls-27" x="845.53" y="421.57" width="10.09" height="312.97"/><rect class="cls-28" x="855.62" y="421.57" width="10.09" height="312.97"/><rect class="cls-29" x="865.71" y="421.57" width="10.09" height="312.97"/><rect class="cls-30" x="875.81" y="421.57" width="10.09" height="312.97"/><rect class="cls-31" x="885.9" y="421.57" width="10.09" height="312.97"/><rect class="cls-32" x="895.99" y="421.57" width="10.09" height="312.97"/><rect class="cls-33" x="906.08" y="421.57" width="10.09" height="312.97"/><rect class="cls-34" x="916.17" y="421.57" width="10.09" height="312.97"/><rect class="cls-35" x="926.27" y="421.57" width="0.59" height="312.97"/><rect class="cls-36" x="228.99" y="421.57" width="0.92" height="312.97"/><rect class="cls-37" x="229.91" y="421.57" width="10.09" height="312.97"/><rect class="cls-38" x="240" y="421.57" width="10.09" height="312.97"/><rect class="cls-39" x="250.09" y="421.57" width="10.09" height="312.97"/><rect class="cls-40" x="260.18" y="421.57" width="10.09" height="312.97"/><rect class="cls-41" x="270.28" y="421.57" width="10.09" height="312.97"/><rect class="cls-42" x="280.37" y="421.57" width="10.09" height="312.97"/><rect class="cls-43" x="290.46" y="421.57" width="10.09" height="312.97"/><rect class="cls-44" x="300.55" y="421.57" width="10.09" height="312.97"/><rect class="cls-45" x="310.64" y="421.57" width="10.09" height="312.97"/><rect class="cls-46" x="320.74" y="421.57" width="10.09" height="312.97"/><rect class="cls-47" x="330.83" y="421.57" width="10.09" height="312.97"/><rect class="cls-48" x="340.92" y="421.57" width="10.09" height="312.97"/><rect class="cls-49" x="351.01" y="421.57" width="10.09" height="312.97"/><rect class="cls-50" x="361.1" y="421.57" width="10.09" height="312.97"/><rect class="cls-51" x="371.2" y="421.57" width="10.09" height="312.97"/><rect class="cls-52" x="381.29" y="421.57" width="10.09" height="312.97"/><rect class="cls-53" x="391.38" y="421.57" width="10.09" height="312.97"/><rect class="cls-54" x="401.47" y="421.57" width="10.09" height="312.97"/><rect class="cls-55" x="411.57" y="421.57" width="10.09" height="312.97"/><rect class="cls-56" x="421.66" y="421.57" width="10.09" height="312.97"/><rect class="cls-57" x="431.75" y="421.57" width="10.09" height="312.97"/><rect class="cls-58" x="441.84" y="421.57" width="10.09" height="312.97"/><rect class="cls-59" x="451.93" y="421.57" width="10.09" height="312.97"/><rect class="cls-60" x="462.03" y="421.57" width="10.09" height="312.97"/><rect class="cls-61" x="472.12" y="421.57" width="10.09" height="312.97"/><rect class="cls-62" x="482.21" y="421.57" width="10.09" height="312.97"/><rect class="cls-63" x="492.3" y="421.57" width="10.09" height="312.97"/><rect class="cls-64" x="502.4" y="421.57" width="10.09" height="312.97"/><rect class="cls-65" x="512.49" y="421.57" width="10.09" height="312.97"/><rect class="cls-66" x="522.58" y="421.57" width="10.09" height="312.97"/><rect class="cls-67" x="532.67" y="421.57" width="8.95" height="312.97"/><rect class="cls-68" x="144.92" y="337.51" width="4.25" height="481.16"/><rect class="cls-68" x="149.17" y="337.51" width="10.09" height="481.16"/><rect class="cls-69" x="159.26" y="337.51" width="10.09" height="481.16"/><rect class="cls-70" x="169.35" y="337.51" width="10.09" height="481.16"/><rect class="cls-71" x="179.45" y="337.51" width="10.09" height="481.16"/><rect class="cls-72" x="189.54" y="337.51" width="10.09" height="481.16"/><rect class="cls-73" x="199.63" y="337.51" width="10.09" height="481.16"/><rect class="cls-74" x="209.72" y="337.51" width="10.09" height="481.16"/><rect class="cls-36" x="219.81" y="337.51" width="10.09" height="481.16"/><rect class="cls-37" x="229.91" y="337.51" width="10.09" height="481.16"/><rect class="cls-38" x="240" y="337.51" width="10.09" height="481.16"/><rect class="cls-39" x="250.09" y="337.51" width="10.09" height="481.16"/><rect class="cls-40" x="260.18" y="337.51" width="10.09" height="481.16"/><rect class="cls-41" x="270.28" y="337.51" width="10.09" height="481.16"/><rect class="cls-42" x="280.37" y="337.51" width="10.09" height="481.16"/><rect class="cls-43" x="290.46" y="337.51" width="10.09" height="481.16"/><rect class="cls-44" x="300.55" y="337.51" width="10.09" height="481.16"/><rect class="cls-45" x="310.64" y="337.51" width="10.09" height="481.16"/><rect class="cls-46" x="320.74" y="337.51" width="10.09" height="481.16"/><rect class="cls-47" x="330.83" y="337.51" width="10.09" height="481.16"/><rect class="cls-48" x="340.92" y="337.51" width="10.09" height="481.16"/><rect class="cls-49" x="351.01" y="337.51" width="10.09" height="481.16"/><rect class="cls-50" x="361.1" y="337.51" width="10.09" height="481.16"/><rect class="cls-51" x="371.2" y="337.51" width="10.09" height="481.16"/><rect class="cls-52" x="381.29" y="337.51" width="10.09" height="481.16"/><rect class="cls-53" x="391.38" y="337.51" width="10.09" height="481.16"/><rect class="cls-54" x="401.47" y="337.51" width="10.09" height="481.16"/><rect class="cls-55" x="411.57" y="337.51" width="10.09" height="481.16"/><rect class="cls-56" x="421.66" y="337.51" width="10.09" height="481.16"/><rect class="cls-57" x="431.75" y="337.51" width="10.09" height="481.16"/><rect class="cls-58" x="441.84" y="337.51" width="10.09" height="481.16"/><rect class="cls-59" x="451.93" y="337.51" width="10.09" height="481.16"/><rect class="cls-60" x="462.03" y="337.51" width="10.09" height="481.16"/><rect class="cls-61" x="472.12" y="337.51" width="10.09" height="481.16"/><rect class="cls-62" x="482.21" y="337.51" width="10.09" height="481.16"/><rect class="cls-63" x="492.3" y="337.51" width="10.09" height="481.16"/><rect class="cls-64" x="502.4" y="337.51" width="10.09" height="481.16"/><rect class="cls-65" x="512.49" y="337.51" width="10.09" height="481.16"/><rect class="cls-66" x="522.58" y="337.51" width="10.09" height="481.16"/><rect class="cls-67" x="532.67" y="337.51" width="10.09" height="481.16"/><rect class="cls-75" x="542.76" y="337.51" width="10.09" height="481.16"/><rect class="cls-76" x="552.86" y="337.51" width="10.09" height="481.16"/><rect class="cls-77" x="562.95" y="337.51" width="10.09" height="481.16"/><rect class="cls-78" x="573.04" y="337.51" width="10.09" height="481.16"/><rect class="cls-79" x="583.13" y="337.51" width="10.09" height="481.16"/><rect class="cls-80" x="593.22" y="337.51" width="10.09" height="481.16"/><rect class="cls-81" x="603.32" y="337.51" width="10.09" height="481.16"/><rect class="cls-4" x="613.41" y="337.51" width="10.09" height="481.16"/><rect class="cls-5" x="623.5" y="337.51" width="10.09" height="481.16"/><rect class="cls-6" x="633.59" y="337.51" width="10.09" height="481.16"/><rect class="cls-7" x="643.69" y="337.51" width="10.09" height="481.16"/><rect class="cls-8" x="653.78" y="337.51" width="10.09" height="481.16"/><rect class="cls-9" x="663.87" y="337.51" width="10.09" height="481.16"/><rect class="cls-10" x="673.96" y="337.51" width="10.09" height="481.16"/><rect class="cls-11" x="684.05" y="337.51" width="10.09" height="481.16"/><rect class="cls-12" x="694.15" y="337.51" width="10.09" height="481.16"/><rect class="cls-13" x="704.24" y="337.51" width="10.09" height="481.16"/><rect class="cls-14" x="714.33" y="337.51" width="10.09" height="481.16"/><rect class="cls-15" x="724.42" y="337.51" width="10.09" height="481.16"/><rect class="cls-16" x="734.52" y="337.51" width="10.09" height="481.16"/><rect class="cls-17" x="744.61" y="337.51" width="10.09" height="481.16"/><rect class="cls-18" x="754.7" y="337.51" width="10.09" height="481.16"/><rect class="cls-19" x="764.79" y="337.51" width="10.09" height="481.16"/><rect class="cls-20" x="774.88" y="337.51" width="10.09" height="481.16"/><rect class="cls-21" x="784.98" y="337.51" width="10.09" height="481.16"/><rect class="cls-22" x="795.07" y="337.51" width="10.09" height="481.16"/><rect class="cls-23" x="805.16" y="337.51" width="10.09" height="481.16"/><rect class="cls-24" x="815.25" y="337.51" width="10.09" height="481.16"/><rect class="cls-25" x="825.34" y="337.51" width="10.09" height="481.16"/><rect class="cls-26" x="835.44" y="337.51" width="10.09" height="481.16"/><rect class="cls-27" x="845.53" y="337.51" width="10.09" height="481.16"/><rect class="cls-28" x="855.62" y="337.51" width="10.09" height="481.16"/><rect class="cls-29" x="865.71" y="337.51" width="10.09" height="481.16"/><rect class="cls-30" x="875.81" y="337.51" width="10.09" height="481.16"/><rect class="cls-31" x="885.9" y="337.51" width="10.09" height="481.16"/><rect class="cls-32" x="895.99" y="337.51" width="10.09" height="481.16"/><rect class="cls-33" x="906.08" y="337.51" width="10.09" height="481.16"/><rect class="cls-34" x="916.17" y="337.51" width="10.09" height="481.16"/><rect class="cls-35" x="926.27" y="337.51" width="10.09" height="481.16"/><rect class="cls-82" x="936.36" y="337.51" width="10.09" height="481.16"/><rect class="cls-83" x="946.45" y="337.51" width="10.09" height="481.16"/><rect class="cls-84" x="956.54" y="337.51" width="10.09" height="481.16"/><rect class="cls-85" x="966.64" y="337.51" width="10.09" height="481.16"/><rect class="cls-86" x="976.73" y="337.51" width="10.09" height="481.16"/><rect class="cls-87" x="986.82" y="337.51" width="10.09" height="481.16"/><rect class="cls-88" x="996.91" y="337.51" width="10.09" height="481.16"/><rect class="cls-88" x="1007" y="337.51" width="4.25" height="481.16"/></g></svg>