<svg id="Camada_1" data-name="Camada 1" xmlns="http://www.w3.org/2000/svg" xmlns:xlink="http://www.w3.org/1999/xlink" viewBox="0 0 1156.17 1156.17"><defs><style>.cls-1{fill:none;}.cls-2{clip-path:url(#clip-path);}.cls-3{fill:#ef3f4a;}.cls-4{fill:#ef4049;}.cls-5{fill:#ef4048;}.cls-6{fill:#ef4147;}.cls-7{fill:#ef4246;}.cls-8{fill:#ef4245;}.cls-9{fill:#ef4344;}.cls-10{fill:#f04443;}.cls-11{fill:#f04542;}.cls-12{fill:#f04541;}.cls-13{fill:#f04640;}.cls-14{fill:#f0473f;}.cls-15{fill:#f0473e;}.cls-16{fill:#f0483d;}.cls-17{fill:#f0493c;}.cls-18{fill:#f04a3b;}.cls-19{fill:#f04a3a;}.cls-20{fill:#f04b39;}.cls-21{fill:#f04c38;}.cls-22{fill:#f04c37;}.cls-23{fill:#f04d36;}.cls-24{fill:#f04e35;}.cls-25{fill:#f04f34;}.cls-26{fill:#f04f33;}.cls-27{fill:#f05032;}.cls-28{fill:#f05131;}.cls-29{fill:#f05130;}.cls-30{fill:#f0522f;}.cls-31{fill:#f1532e;}.cls-32{fill:#f1542d;}.cls-33{fill:#f1542c;}.cls-34{fill:#f1552b;}.cls-35{fill:#ed2372;}.cls-36{fill:#ed2471;}.cls-37{fill:#ed2470;}.cls-38{fill:#ed256f;}.cls-39{fill:#ee266e;}.cls-40{fill:#ee276d;}.cls-41{fill:#ee276c;}.cls-42{fill:#ee286b;}.cls-43{fill:#ee296a;}.cls-44{fill:#ee2969;}.cls-45{fill:#ee2a68;}.cls-46{fill:#ee2b67;}.cls-47{fill:#ee2c66;}.cls-48{fill:#ee2c65;}.cls-49{fill:#ee2d64;}.cls-50{fill:#ee2e63;}.cls-51{fill:#ee2e62;}.cls-52{fill:#ee2f61;}.cls-53{fill:#ee3060;}.cls-54{fill:#ee315f;}.cls-55{fill:#ee315e;}.cls-56{fill:#ee325d;}.cls-57{fill:#ee335c;}.cls-58{fill:#ee335b;}.cls-59{fill:#ee345a;}.cls-60{fill:#ef3559;}.cls-61{fill:#ef3658;}.cls-62{fill:#ef3657;}.cls-63{fill:#ef3756;}.cls-64{fill:#ef3855;}.cls-65{fill:#ef3854;}.cls-66{fill:#ef3953;}.cls-67{fill:#ed1e79;}.cls-68{fill:#ed1f78;}.cls-69{fill:#ed1f77;}.cls-70{fill:#ed2076;}.cls-71{fill:#ed2175;}.cls-72{fill:#ed2274;}.cls-73{fill:#ed2273;}.cls-74{fill:#ef3a52;}.cls-75{fill:#ef3b51;}.cls-76{fill:#ef3b50;}.cls-77{fill:#ef3c4f;}.cls-78{fill:#ef3d4d;}.cls-79{fill:#ef3d4c;}.cls-80{fill:#ef3e4b;}.cls-81{fill:#f1562a;}.cls-82{fill:#f15629;}.cls-83{fill:#f15728;}.cls-84{fill:#f15827;}.cls-85{fill:#f15926;}.cls-86{fill:#f15925;}.cls-87{fill:#f15a24;}.cls-88{fill:#3a3a3a;}</style><clipPath id="clip-path"><path class="cls-1" d="M1044.4,335.42a48.73,48.73,0,0,0-60.77-6.54h0L835.37,180.62A48.73,48.73,0,1,0,753,180L604.34,328.65a48.8,48.8,0,0,0-52.65.44L403.76,180.69A48.73,48.73,0,1,0,321.4,180L172,329.47a48.73,48.73,0,1,0,1.32,81.94L320.89,560h0a48.72,48.72,0,1,0,82.21.61h0L551.93,410.81a48.78,48.78,0,0,0,52.18.45l148.3,148.79h0a48.72,48.72,0,1,0,82.26.54h0L983.5,410.81h0a48.73,48.73,0,0,0,60.9-75.39ZM388.51,545.67h0a48.79,48.79,0,0,0-52.76-.38h0l-148-148.92a48.79,48.79,0,0,0-.82-52.31v0L336,195h0a48.83,48.83,0,0,0,53,.42L537.08,344a48.74,48.74,0,0,0,.15,52Zm431.56,0h0a48.77,48.77,0,0,0-52.83-.34h0L619.09,396.71h0a48.79,48.79,0,0,0,.14-53.39L767.53,195h0a48.83,48.83,0,0,0,53,.38L968.88,343.67A48.78,48.78,0,0,0,968.8,396h0Z"/></clipPath></defs><title>Safely_Colorido</title><g class="cls-2"><rect class="cls-3" x="619.09" y="195" width="9.88" height="350.67"/><rect class="cls-4" x="628.97" y="195" width="11.31" height="350.67"/><rect class="cls-5" x="640.28" y="195" width="11.31" height="350.67"/><rect class="cls-6" x="651.59" y="195" width="11.31" height="350.67"/><rect class="cls-7" x="662.9" y="195" width="11.31" height="350.67"/><rect class="cls-8" x="674.2" y="195" width="11.31" height="350.67"/><rect class="cls-9" x="685.51" y="195" width="11.31" height="350.67"/><rect class="cls-10" x="696.82" y="195" width="11.31" height="350.67"/><rect class="cls-11" x="708.13" y="195" width="11.31" height="350.67"/><rect class="cls-12" x="719.44" y="195" width="11.31" height="350.67"/><rect class="cls-13" x="730.74" y="195" width="11.31" height="350.67"/><rect class="cls-14" x="742.05" y="195" width="11.31" height="350.67"/><rect class="cls-15" x="753.36" y="195" width="11.31" height="350.67"/><rect class="cls-16" x="764.67" y="195" width="11.31" height="350.67"/><rect class="cls-17" x="775.97" y="195" width="11.31" height="350.67"/><rect class="cls-18" x="787.28" y="195" width="11.31" height="350.67"/><rect class="cls-19" x="798.59" y="195" width="11.31" height="350.67"/><rect class="cls-20" x="809.9" y="195" width="11.31" height="350.67"/><rect class="cls-21" x="821.21" y="195" width="11.31" height="350.67"/><rect class="cls-22" x="832.51" y="195" width="11.31" height="350.67"/><rect class="cls-23" x="843.82" y="195" width="11.31" height="350.67"/><rect class="cls-24" x="855.13" y="195" width="11.31" height="350.67"/><rect class="cls-25" x="866.44" y="195" width="11.31" height="350.67"/><rect class="cls-26" x="877.75" y="195" width="11.31" height="350.67"/><rect class="cls-27" x="889.05" y="195" width="11.31" height="350.67"/><rect class="cls-28" x="900.36" y="195" width="11.31" height="350.67"/><rect class="cls-29" x="911.67" y="195" width="11.31" height="350.67"/><rect class="cls-30" x="922.98" y="195" width="11.31" height="350.67"/><rect class="cls-31" x="934.28" y="195" width="11.31" height="350.67"/><rect class="cls-32" x="945.59" y="195" width="11.31" height="350.67"/><rect class="cls-33" x="956.9" y="195" width="11.31" height="350.67"/><rect class="cls-34" x="968.21" y="195" width="0.67" height="350.67"/><rect class="cls-35" x="186.94" y="195" width="1.03" height="350.67"/><rect class="cls-36" x="187.96" y="195" width="11.31" height="350.67"/><rect class="cls-37" x="199.27" y="195" width="11.31" height="350.67"/><rect class="cls-38" x="210.58" y="195" width="11.31" height="350.67"/><rect class="cls-39" x="221.89" y="195" width="11.31" height="350.67"/><rect class="cls-40" x="233.2" y="195" width="11.31" height="350.67"/><rect class="cls-41" x="244.5" y="195" width="11.31" height="350.67"/><rect class="cls-42" x="255.81" y="195" width="11.31" height="350.67"/><rect class="cls-43" x="267.12" y="195" width="11.31" height="350.67"/><rect class="cls-44" x="278.43" y="195" width="11.31" height="350.67"/><rect class="cls-45" x="289.74" y="195" width="11.31" height="350.67"/><rect class="cls-46" x="301.04" y="195" width="11.31" height="350.67"/><rect class="cls-47" x="312.35" y="195" width="11.31" height="350.67"/><rect class="cls-48" x="323.66" y="195" width="11.31" height="350.67"/><rect class="cls-49" x="334.97" y="195" width="11.31" height="350.67"/><rect class="cls-50" x="346.28" y="195" width="11.31" height="350.67"/><rect class="cls-51" x="357.58" y="195" width="11.31" height="350.67"/><rect class="cls-52" x="368.89" y="195" width="11.31" height="350.67"/><rect class="cls-53" x="380.2" y="195" width="11.31" height="350.67"/><rect class="cls-54" x="391.51" y="195" width="11.31" height="350.67"/><rect class="cls-55" x="402.81" y="195" width="11.31" height="350.67"/><rect class="cls-56" x="414.12" y="195" width="11.31" height="350.67"/><rect class="cls-57" x="425.43" y="195" width="11.31" height="350.67"/><rect class="cls-58" x="436.74" y="195" width="11.31" height="350.67"/><rect class="cls-59" x="448.05" y="195" width="11.31" height="350.67"/><rect class="cls-60" x="459.35" y="195" width="11.31" height="350.67"/><rect class="cls-61" x="470.66" y="195" width="11.31" height="350.67"/><rect class="cls-62" x="481.97" y="195" width="11.31" height="350.67"/><rect class="cls-63" x="493.28" y="195" width="11.31" height="350.67"/><rect class="cls-64" x="504.59" y="195" width="11.31" height="350.67"/><rect class="cls-65" x="515.89" y="195" width="11.31" height="350.67"/><rect class="cls-66" x="527.2" y="195" width="10.03" height="350.67"/><rect class="cls-67" x="92.74" y="100.81" width="4.76" height="539.12"/><rect class="cls-67" x="97.5" y="100.81" width="11.31" height="539.12"/><rect class="cls-68" x="108.81" y="100.81" width="11.31" height="539.12"/><rect class="cls-69" x="120.12" y="100.81" width="11.31" height="539.12"/><rect class="cls-70" x="131.43" y="100.81" width="11.31" height="539.12"/><rect class="cls-71" x="142.73" y="100.81" width="11.31" height="539.12"/><rect class="cls-72" x="154.04" y="100.81" width="11.31" height="539.12"/><rect class="cls-73" x="165.35" y="100.81" width="11.31" height="539.12"/><rect class="cls-35" x="176.66" y="100.81" width="11.31" height="539.12"/><rect class="cls-36" x="187.96" y="100.81" width="11.31" height="539.12"/><rect class="cls-37" x="199.27" y="100.81" width="11.31" height="539.12"/><rect class="cls-38" x="210.58" y="100.81" width="11.31" height="539.12"/><rect class="cls-39" x="221.89" y="100.81" width="11.31" height="539.12"/><rect class="cls-40" x="233.2" y="100.81" width="11.31" height="539.12"/><rect class="cls-41" x="244.5" y="100.81" width="11.31" height="539.12"/><rect class="cls-42" x="255.81" y="100.81" width="11.31" height="539.12"/><rect class="cls-43" x="267.12" y="100.81" width="11.31" height="539.12"/><rect class="cls-44" x="278.43" y="100.81" width="11.31" height="539.12"/><rect class="cls-45" x="289.74" y="100.81" width="11.31" height="539.12"/><rect class="cls-46" x="301.04" y="100.81" width="11.31" height="539.12"/><rect class="cls-47" x="312.35" y="100.81" width="11.31" height="539.12"/><rect class="cls-48" x="323.66" y="100.81" width="11.31" height="539.12"/><rect class="cls-49" x="334.97" y="100.81" width="11.31" height="539.12"/><rect class="cls-50" x="346.28" y="100.81" width="11.31" height="539.12"/><rect class="cls-51" x="357.58" y="100.81" width="11.31" height="539.12"/><rect class="cls-52" x="368.89" y="100.81" width="11.31" height="539.12"/><rect class="cls-53" x="380.2" y="100.81" width="11.31" height="539.12"/><rect class="cls-54" x="391.51" y="100.81" width="11.31" height="539.12"/><rect class="cls-55" x="402.81" y="100.81" width="11.31" height="539.12"/><rect class="cls-56" x="414.12" y="100.81" width="11.31" height="539.12"/><rect class="cls-57" x="425.43" y="100.81" width="11.31" height="539.12"/><rect class="cls-58" x="436.74" y="100.81" width="11.31" height="539.12"/><rect class="cls-59" x="448.05" y="100.81" width="11.31" height="539.12"/><rect class="cls-60" x="459.35" y="100.81" width="11.31" height="539.12"/><rect class="cls-61" x="470.66" y="100.81" width="11.31" height="539.12"/><rect class="cls-62" x="481.97" y="100.81" width="11.31" height="539.12"/><rect class="cls-63" x="493.28" y="100.81" width="11.31" height="539.12"/><rect class="cls-64" x="504.59" y="100.81" width="11.31" height="539.12"/><rect class="cls-65" x="515.89" y="100.81" width="11.31" height="539.12"/><rect class="cls-66" x="527.2" y="100.81" width="11.31" height="539.12"/><rect class="cls-74" x="538.51" y="100.81" width="11.31" height="539.12"/><rect class="cls-75" x="549.82" y="100.81" width="11.31" height="539.12"/><rect class="cls-76" x="561.12" y="100.81" width="11.31" height="539.12"/><rect class="cls-77" x="572.43" y="100.81" width="11.31" height="539.12"/><rect class="cls-78" x="583.74" y="100.81" width="11.31" height="539.12"/><rect class="cls-79" x="595.05" y="100.81" width="11.31" height="539.12"/><rect class="cls-80" x="606.36" y="100.81" width="11.31" height="539.12"/><rect class="cls-3" x="617.66" y="100.81" width="11.31" height="539.12"/><rect class="cls-4" x="628.97" y="100.81" width="11.31" height="539.12"/><rect class="cls-5" x="640.28" y="100.81" width="11.31" height="539.12"/><rect class="cls-6" x="651.59" y="100.81" width="11.31" height="539.12"/><rect class="cls-7" x="662.9" y="100.81" width="11.31" height="539.12"/><rect class="cls-8" x="674.2" y="100.81" width="11.31" height="539.12"/><rect class="cls-9" x="685.51" y="100.81" width="11.31" height="539.12"/><rect class="cls-10" x="696.82" y="100.81" width="11.31" height="539.12"/><rect class="cls-11" x="708.13" y="100.81" width="11.31" height="539.12"/><rect class="cls-12" x="719.44" y="100.81" width="11.31" height="539.12"/><rect class="cls-13" x="730.74" y="100.81" width="11.31" height="539.12"/><rect class="cls-14" x="742.05" y="100.81" width="11.31" height="539.12"/><rect class="cls-15" x="753.36" y="100.81" width="11.31" height="539.12"/><rect class="cls-16" x="764.67" y="100.81" width="11.31" height="539.12"/><rect class="cls-17" x="775.97" y="100.81" width="11.31" height="539.12"/><rect class="cls-18" x="787.28" y="100.81" width="11.31" height="539.12"/><rect class="cls-19" x="798.59" y="100.81" width="11.31" height="539.12"/><rect class="cls-20" x="809.9" y="100.81" width="11.31" height="539.12"/><rect class="cls-21" x="821.21" y="100.81" width="11.31" height="539.12"/><rect class="cls-22" x="832.51" y="100.81" width="11.31" height="539.12"/><rect class="cls-23" x="843.82" y="100.81" width="11.31" height="539.12"/><rect class="cls-24" x="855.13" y="100.81" width="11.31" height="539.12"/><rect class="cls-25" x="866.44" y="100.81" width="11.31" height="539.12"/><rect class="cls-26" x="877.75" y="100.81" width="11.31" height="539.12"/><rect class="cls-27" x="889.05" y="100.81" width="11.31" height="539.12"/><rect class="cls-28" x="900.36" y="100.81" width="11.31" height="539.12"/><rect class="cls-29" x="911.67" y="100.81" width="11.31" height="539.12"/><rect class="cls-30" x="922.98" y="100.81" width="11.31" height="539.12"/><rect class="cls-31" x="934.28" y="100.81" width="11.31" height="539.12"/><rect class="cls-32" x="945.59" y="100.81" width="11.31" height="539.12"/><rect class="cls-33" x="956.9" y="100.81" width="11.31" height="539.12"/><rect class="cls-34" x="968.21" y="100.81" width="11.31" height="539.12"/><rect class="cls-81" x="979.52" y="100.81" width="11.31" height="539.12"/><rect class="cls-82" x="990.82" y="100.81" width="11.31" height="539.12"/><rect class="cls-83" x="1002.13" y="100.81" width="11.31" height="539.12"/><rect class="cls-84" x="1013.44" y="100.81" width="11.31" height="539.12"/><rect class="cls-85" x="1024.75" y="100.81" width="11.31" height="539.12"/><rect class="cls-86" x="1036.06" y="100.81" width="11.31" height="539.12"/><rect class="cls-87" x="1047.36" y="100.81" width="11.31" height="539.12"/><rect class="cls-87" x="1058.67" y="100.81" width="4.76" height="539.12"/></g><path class="cls-88" d="M299.36,755.07c3.45,4.6,2.68,8.82-1.54,12.27L277.89,784.2c-4.22,3.83-8.43,2.69-12.27-1.53-10.34-11.5-24.53-17.25-43.69-17.25-28.75,0-47.15,15.72-47.15,40.63,0,16.1,10.35,24.92,44.46,31.05,49.45,8.81,67.85,28.37,67.85,64.4,0,54-36.41,87.78-95.06,87.78-39.1,0-67.47-11.89-85.86-35.27-3.45-4.6-2.3-8.82,1.91-12.26l19.55-16.87c4.22-3.83,8.43-3.07,12.27,1.53,13,15.34,31.43,23,54.81,23,28,0,46.77-16.48,46.77-41,0-15.72-10.74-24.15-44.09-30.29-50.21-9.2-68.61-28.36-68.61-65.16,0-53.28,37.18-87.4,95.45-87.4C258.34,725.55,283.64,735.52,299.36,755.07Z"/><path class="cls-88" d="M466.1,849.75A113.6,113.6,0,0,1,465,865.47L456.51,918c-7.28,46.76-34.5,71.3-83.18,71.3-42.16,0-65.16-19.94-65.16-55.2,0-41,25.68-63.63,77.05-63.63H422.4a84.69,84.69,0,0,0,1.53-14.57c0-21.08-11.11-30.28-33-30.28-12.27,0-24.54,5-34.89,12.27-5,3.83-9.2,3.06-12.26-2.3l-8.43-16.1q-4-7.49,3.45-12.65c18.78-12.27,36.41-17.25,57.88-17.25C440.8,789.57,466.1,810.65,466.1,849.75ZM415.5,913l1.91-11.5H387.52c-23.77,0-37.19,10.35-37.19,29.51,0,14.57,9.59,22.24,26.07,22.24C399,953.25,411.28,940.21,415.5,913Z"/><path class="cls-88" d="M568.44,780.75l-2.3,13.42h45.61c6.14,0,9.2,3.45,8,9.58l-2.68,18.4q-1.15,8.05-9.2,8.05H560.77L537.39,976.63q-1.14,8-9.2,8H504c-6.13,0-9.2-3.45-8.05-9.59L518.61,830.2H503.66c-6.13,0-9.2-3.45-8.05-9.58l3.07-18.4q1.14-8.06,9.2-8.05h16.48l2.3-14.18c7.28-44.85,31.81-68.24,73.21-68.24,15,0,28.75,2.31,39.48,7.29,5,2.3,6.14,6.9,3.45,11.88l-10,17.25c-2.69,5-6.14,5.75-11.12,3.45-5.75-2.68-12.27-3.83-20.32-3.83C583.39,747.79,571.89,759.67,568.44,780.75Z"/><path class="cls-88" d="M774.66,848.6a112.23,112.23,0,0,1-1.14,15.33l-5,30.67q-1.14,8-9.2,8H662.74l-1.15,7.66a81.52,81.52,0,0,0-1.15,13c0,21.08,11.11,29.9,34.11,29.9,13,0,24.15-4.6,34.5-13.42,5-3.83,9.2-3.45,12.65,1.53l9.58,15.33c2.69,4.6,2.3,8.82-1.91,12.27a91.87,91.87,0,0,1-57.88,20.32c-47.15,0-73.6-20.7-73.6-60.57a94.57,94.57,0,0,1,1.53-16.86l8.05-51c7.67-47.14,34.12-71.29,80.11-71.29C750.52,789.57,774.66,811,774.66,848.6ZM668.1,865.85l-.76,5.36H732.5l.77-5.74a78.3,78.3,0,0,0,1.15-12.65c0-18.4-9.2-27.22-27.6-27.22C684.59,825.6,672.7,838.63,668.1,865.85Z"/><path class="cls-88" d="M800,984.68c-6.13,0-9.2-3.45-8.05-9.59l39.87-250.68q1.14-8.05,9.2-8.06h24.15c6.13,0,9.2,3.46,8,9.59L833.31,976.63q-1.15,8-9.2,8Z"/><path class="cls-88" d="M1043.75,794.17c6.13,0,9.2,3.45,8,9.58l-28,178.24c-6.9,43.7-36,68.62-81.65,68.62-26.06,0-48.3-7.29-62.86-20.32-4.22-3.45-4.22-8-.77-12.27l11.88-15.71c3.84-4.6,8.05-4.6,12.27-.77,11.12,9.2,24.15,13,38.71,13,23.39,0,37.19-12.27,41-35.65L984,969h-.76c-10,9.2-23,13.42-39.1,13.42-36.8,0-56.73-19.94-56.73-55.58a96.91,96.91,0,0,1,1.53-17.64l16.87-106.94q1.14-8.06,9.2-8.05h24.15c6.13,0,9.19,3.45,8,9.58L930.67,908a64.51,64.51,0,0,0-1.15,11.5c0,18.4,9.2,26.83,27.22,26.83,20.7,0,32.58-13,36.8-38.71l16.86-105.41q1.15-8.06,9.2-8.05Z"/></svg>